<?xml version="1.0" encoding="UTF-8" standalone="no"?>
<!-- Created with Inkscape (http://www.inkscape.org/) -->

<svg
   width="100.488mm"
   height="100.488mm"
   viewBox="0 0 100.488 100.488"
   version="1.1"
   id="svg5"
   xml:space="preserve"
   inkscape:export-filename="icons-192.png"
   inkscape:export-xdpi="129.41646"
   inkscape:export-ydpi="129.41646"
   inkscape:version="1.2.2 (732a01da63, 2022-12-09)"
   sodipodi:docname="icons-vector.svg"
   xmlns:inkscape="http://www.inkscape.org/namespaces/inkscape"
   xmlns:sodipodi="http://sodipodi.sourceforge.net/DTD/sodipodi-0.dtd"
   xmlns="http://www.w3.org/2000/svg"
   xmlns:svg="http://www.w3.org/2000/svg"><sodipodi:namedview
     id="namedview7"
     pagecolor="#ffffff"
     bordercolor="#000000"
     borderopacity="0.25"
     inkscape:showpageshadow="2"
     inkscape:pageopacity="0.0"
     inkscape:pagecheckerboard="0"
     inkscape:deskcolor="#d1d1d1"
     inkscape:document-units="mm"
     showgrid="false"
     inkscape:zoom="0.70037385"
     inkscape:cx="15.705898"
     inkscape:cy="242.0136"
     inkscape:window-width="958"
     inkscape:window-height="1000"
     inkscape:window-x="-7"
     inkscape:window-y="0"
     inkscape:window-maximized="0"
     inkscape:current-layer="layer1" /><defs
     id="defs2" /><g
     inkscape:label="Layer 1"
     inkscape:groupmode="layer"
     id="layer1"
     transform="translate(-114.03585,-39.166845)"><path
       style="fill:#5a65ea;fill-opacity:1;stroke-width:0.264583"
       d="m 161.23714,139.18133 c -2.13733,-0.6981 -37.43953,-21.22392 -38.8098,-22.56525 -0.60867,-0.59582 -1.50164,-1.87005 -1.98438,-2.83163 l -0.87769,-1.74832 V 89.532883 67.029637 l 0.97602,-1.970712 c 0.53681,-1.083892 1.42978,-2.412123 1.98437,-2.951625 1.36698,-1.329775 37.32053,-22.056347 39.22081,-22.610087 2.07512,-0.604685 4.55674,-0.370434 6.67436,0.630023 0.92392,0.436499 9.47844,5.285665 19.01006,10.775924 18.8979,10.88529 19.41468,11.239643 20.81707,14.274051 l 0.74647,1.615169 v 22.489582 c 0,17.302408 -0.0767,22.741798 -0.33259,23.583098 -0.42587,1.40021 -1.93324,3.43584 -3.33462,4.50325 -0.60241,0.45884 -9.19767,5.52285 -19.10058,11.25337 -13.05503,7.55455 -18.38899,10.50768 -19.40091,10.74126 -1.92434,0.44419 -3.86577,0.3811 -5.58859,-0.18161 z m 21.69435,-25.36479 c 2.25357,-2.00395 4.14017,-3.86559 4.19243,-4.13698 0.16705,-0.8674 -5.8973,-6.65674 -10.55666,-10.07794 -2.26421,-1.662531 -4.3365,-3.265596 -4.60507,-3.562366 -0.26857,-0.29677 -0.70491,-0.539584 -0.96964,-0.539584 -0.40439,0 -5.51393,4.51755 -6.11135,5.40329 -0.29199,0.4329 0.0485,1.28181 0.75115,1.87275 0.34605,0.29104 1.73112,2.09205 3.07793,4.00224 2.46221,3.49218 9.03566,10.68214 9.76619,10.68214 0.19669,0 2.20145,-1.6396 4.45502,-3.64355 z m -35.87352,2.54914 c 0.69105,0.0131 1.47917,-0.4395 1.47917,-0.84938 0,-0.18573 0.22547,-0.57969 0.50104,-0.87548 0.27557,-0.29579 0.69216,-0.9074 0.92576,-1.35913 0.42105,-0.81422 1.95536,-2.1716 2.45466,-2.1716 0.47772,0 1.42936,-1.2378 1.69708,-2.20742 0.21316,-0.772 1.76466,-2.39331 7.94798,-8.30561 6.28436,-6.008908 7.89523,-7.41479 8.84825,-7.722286 0.8845,-0.28539 1.58484,-0.843021 2.90758,-2.315104 0.95834,-1.066541 1.8735,-1.939166 2.03368,-1.939166 0.1602,0 0.50077,-0.189608 0.75685,-0.421349 0.25607,-0.231743 0.86076,-0.623107 1.34375,-0.869701 l 0.87816,-0.44835 2.58641,2.457199 c 1.70152,1.616527 2.79159,2.457201 3.18615,2.457201 0.40646,0 1.7899,-1.125524 4.29276,-3.492466 3.9217,-3.708735 4.35923,-4.237402 4.15457,-5.020005 -0.0711,-0.27196 -1.16956,-1.474237 -2.44099,-2.671731 l -2.31168,-2.177256 -0.12917,-2.241124 -0.12917,-2.241124 -2.41286,-2.28769 c -2.18629,-2.07286 -2.53171,-2.302045 -3.6784,-2.44057 -0.69605,-0.08409 -1.79358,-0.101433 -2.43898,-0.03855 -0.76287,0.07433 -1.31831,-0.01297 -1.5875,-0.249492 -0.22773,-0.200104 -3.37103,-1.875845 -6.98511,-3.723872 -6.90494,-3.530776 -7.27513,-3.644367 -8.44405,-2.590954 -0.94481,0.851453 -0.58202,1.812692 3.23676,8.575976 l 3.69978,6.552528 -0.54136,1.136187 c -0.949,1.991712 -1.08525,2.165159 -2.97095,3.78202 -1.1599,0.99454 -2.0339,1.996826 -2.33991,2.683367 -0.70034,1.571236 -15.42756,15.653862 -16.991,16.247332 -1.1859,0.45016 -2.28342,1.26218 -2.28342,1.68944 0,0.37161 -2.16385,2.5309 -2.53624,2.5309 -0.17016,0 -0.458,0.17907 -0.63964,0.39793 -0.18164,0.21887 -0.69894,0.49347 -1.14956,0.61024 -0.67788,0.17565 -0.87893,0.41526 -1.1647,1.388 -1.01509,3.45538 1.77526,7.52967 5.62243,8.20952 0.58208,0.10286 1.29646,0.12964 1.5875,0.0595 0.29104,-0.0701 0.75651,-0.1232 1.03437,-0.11795 z m 10.31979,-28.097903 c 2.25354,-2.093147 2.80105,-2.744446 2.80105,-3.332051 0,-0.602684 -1.09876,-1.815817 -6.28504,-6.93928 -6.28504,-6.20891 -6.28504,-6.20891 -5.88936,-6.913866 0.36056,-0.642379 0.34902,-0.791607 -0.13003,-1.681141 -0.55383,-1.028393 -1.78078,-1.944947 -2.60584,-1.946611 -0.79956,-0.0016 -3.91448,1.76182 -5.38624,3.049283 -1.81116,1.584359 -3.78058,4.549171 -3.78058,5.69138 0,0.670849 0.24731,1.10054 1.1006,1.91225 1.02328,0.973423 1.18761,1.038606 2.33944,0.92793 l 1.23885,-0.119038 6.32566,6.033481 c 4.66833,4.452702 6.47563,6.018533 6.89806,5.976416 0.31481,-0.03139 1.83286,-1.227825 3.37343,-2.658753 z"
       id="path2314" /></g></svg>
